SplineFontDB: 3.0
FontName: Jannon
FullName: Jannon
FamilyName: Jannon
Weight: Regular
Copyright: Created by trashman with FontForge 2.0 (http://fontforge.sf.net)
UComments: "2010-9-5: Created." 
Version: 001.000
ItalicAngle: 0
UnderlinePosition: -100
UnderlineWidth: 50
Ascent: 700
Descent: 300
LayerCount: 2
Layer: 0 0 "Back"  1
Layer: 1 0 "Fore"  0
NeedsXUIDChange: 1
XUID: [1021 658 797806517 9253483]
FSType: 0
OS2Version: 0
OS2_WeightWidthSlopeOnly: 0
OS2_UseTypoMetrics: 1
CreationTime: 1283672823
ModificationTime: 1283690366
OS2TypoAscent: 0
OS2TypoAOffset: 1
OS2TypoDescent: 0
OS2TypoDOffset: 1
OS2TypoLinegap: 90
OS2WinAscent: 0
OS2WinAOffset: 1
OS2WinDescent: 0
OS2WinDOffset: 1
HheadAscent: 0
HheadAOffset: 1
HheadDescent: 0
HheadDOffset: 1
MarkAttachClasses: 1
DEI: 91125
Encoding: UnicodeBmp
UnicodeInterp: none
NameList: Adobe Glyph List
DisplaySize: -48
AntiAlias: 1
FitToEm: 1
WinInfo: 96 16 4
BeginPrivate: 8
BlueValues 15 [-21 0 395 410]
StdHW 4 [68]
StdVW 4 [68]
StemSnapH 22 [22 29 36 41 53 59 68]
StemSnapV 37 [33 61 64 66 67 68 69 70 71 77 78 80]
BlueFuzz 1 0
BlueScale 8 0.039625
BlueShift 1 7
EndPrivate
BeginChars: 65536 53

StartChar: a
Encoding: 97 97 0
Width: 420
VWidth: 0
Flags: W
HStem: -19 59<74.5 166.193> -12 58<293 367.025> 369 41<152.984 272.5>
VStem: 27 80<18.8763 110.746> 247 66<77.3899 193.955> 251 70<83.071 357.688>
LayerCount: 2
Fore
SplineSet
408 59 m 0x78
 393 33 360 -12 308 -12 c 0x78
 278 -12 251 14 238 63 c 1
 211 24 149 -19 90 -19 c 0
 59 -19 27 -5 27 44 c 0
 27 139 143 190 225 216 c 0
 243 222 251 219 251 243 c 2
 252 295 l 2
 252 311 250 327 245 340 c 0
 238 358 218 369 196 369 c 0
 161 369 145 347 131 323 c 0
 118 300 102 266 75 266 c 0
 56 266 49 277 49 290 c 0
 49 306 60 325 69 336 c 0
 99 374 188 410 245 410 c 0
 300 410 321 382 321 314 c 0xb4
 321 249 313 177 313 113 c 2
 313 89 l 2
 313 53 331 46 347 46 c 0
 360 46 379 62 389 76 c 0
 391 79 397 83 404 83 c 0
 410 83 412 79 412 74 c 0
 412 69 410 63 408 59 c 0x78
107 84 m 0
 107 47 126 40 148 40 c 0xb8
 192 40 235 75 243 112 c 0
 245 123 247 129 247 163 c 0
 247 186 244 194 235 194 c 0
 230 194 222 193 211 189 c 0
 186 178 155 162 134 140 c 0
 119 124 107 106 107 84 c 0
EndSplineSet
Validated: 1
EndChar

StartChar: b
Encoding: 98 98 1
Width: 494
VWidth: 0
Flags: W
HStem: -12 36<188.157 323.666> 357 53<196.706 304.616>
VStem: 79 33<-47.9912 2.53705> 80 67<56.477 348.932 373.693 597.716> 391 71<116.393 270.2>
LayerCount: 2
Fore
SplineSet
134 674 m 0xd8
 146 674 147 660 147 638 c 2xd8
 148 381 l 2
 148 373 149 362 166 372 c 0
 195 390 238 410 278 410 c 0
 317 410 354 397 386 374 c 0
 426 346 462 274 462 207 c 0
 462 84 352 -12 244 -12 c 0
 201 -12 170 4 139 4 c 0
 124 4 115 -3 112 -16 c 0
 106 -46 101 -48 96 -48 c 0
 80 -48 79 -36 79 -19 c 0xe8
 79 11 80 24 80 75 c 2
 80 359 l 2
 80 402 77 566 77 566 c 2
 77 582 72 592 65 598 c 0
 56 606 47 606 36 609 c 0
 27 611 18 616 18 624 c 0
 18 630 21 638 33 641 c 0
 56 647 100 664 123 672 c 0
 127 674 131 674 134 674 c 0xd8
149 120 m 2
 150 68 152 70 182 46 c 0
 198 33 227 24 268 24 c 0
 312 24 391 64 391 185 c 0
 391 280 319 357 222 357 c 0
 197 357 147 353 147 324 c 2
 149 120 l 2
EndSplineSet
Validated: 1
EndChar

StartChar: c
Encoding: 99 99 2
Width: 411
VWidth: 0
Flags: W
HStem: -21 63<169.486 301.296> 369 41<163.247 279.205>
VStem: 31 69<114.048 275.401>
LayerCount: 2
Fore
SplineSet
364 52 m 0
 328 9 274 -21 221 -21 c 4
 116 -21 31 42 31 170 c 0
 31 296 117 410 257 410 c 0
 308 410 366 393 366 343 c 0
 366 326 352 318 342 318 c 0
 295 318 281 369 228 369 c 0
 144 369 100 290 100 197 c 0
 100 104 166 42 244 42 c 0
 277 42 324 55 350 82 c 0
 351 83 365 98 373 98 c 0
 377 98 381 95 381 90 c 0
 381 73 368 56 364 52 c 0
EndSplineSet
Validated: 1
EndChar

StartChar: d
Encoding: 100 100 3
Width: 493
VWidth: 0
Flags: W
HStem: 12 22<286.894 312.271> 367 28<169.282 279.478> 635 36<247.169 313.206>
VStem: 27 64<117.626 275.933> 325 64<40.134 331.562>
LayerCount: 2
Fore
SplineSet
449 31 m 0
 456 32 463 26 463 16 c 0
 463 7 454 6 444 2 c 2
 365 -24 l 2
 354 -28 344 -33 337 -33 c 0
 328 -33 324 -24 324 -1 c 0
 324 9 320 12 315 12 c 0
 308 12 299 8 292 4 c 0
 265 -10 234 -17 211 -17 c 0
 90 -17 27 70 27 174 c 0
 27 288 102 395 241 395 c 0
 268 395 295 386 306 385 c 0
 317 384 317 389 317 402 c 2
 314 613 l 2
 314 621 310 631 298 635 c 0
 273 643 247 639 247 655 c 0
 247 669 260 670 272 671 c 0
 306 674 375 680 378 680 c 0
 389 680 391 673 391 659 c 0
 391 636 389 593 389 582 c 0
 387 481 385 380 385 279 c 2
 385 227 l 2
 385 162 386 71 389 38 c 0
 390 26 397 22 407 22 c 0
 421 22 438 29 449 31 c 0
91 202 m 0
 91 91 175 34 264 34 c 0
 280 34 297 38 306 41 c 0
 325 48 325 84 325 111 c 0
 325 166 322 218 320 272 c 0
 319 302 311 325 296 340 c 0
 278 358 254 367 227 367 c 0
 147 367 91 299 91 202 c 0
EndSplineSet
Validated: 1
EndChar

StartChar: e
Encoding: 101 101 4
Width: 417
VWidth: 0
Flags: W
HStem: -21 66<161.004 293.719> 234 29<109.298 277.939> 240 31<127.289 294.674> 383 27<173.22 267.661>
VStem: 31 61<116.442 232.399> 309 78<251.5 326.611>
LayerCount: 2
Fore
SplineSet
216 410 m 0xdc
 335 410 387 309 387 262 c 0
 387 241 370 241 338 240 c 2xbc
 114 234 l 2
 96 234 92 223 92 202 c 0
 92 113 147 45 240 45 c 0
 290 45 309 52 336 74 c 0
 342 79 351 87 360 87 c 0
 366 87 372 83 372 76 c 0
 372 73 371 70 369 66 c 0
 340 24 281 -21 203 -21 c 0
 110 -21 31 59 31 180 c 0
 31 287 97 410 216 410 c 0xdc
309 312 m 0
 309 353 263 383 218 383 c 0
 177 383 145 354 123 318 c 0
 116 306 109 289 109 277 c 0
 109 268 110 263 126 263 c 0xdc
 153 263 212 268 250 271 c 0
 288 275 309 292 309 312 c 0
EndSplineSet
Validated: 1
EndChar

StartChar: f
Encoding: 102 102 5
Width: 338
VWidth: 0
Flags: W
HStem: -4 34<33.0205 116.76 203.47 276.546> 353 40<191.107 303.965> 645 45<234.519 342.149>
VStem: 119 71<37.2388 338.516 393.134 523.98>
LayerCount: 2
Fore
SplineSet
310 690 m 0
 333 690 370 688 370 664 c 0
 370 642 353 619 332 619 c 0
 317 619 311 626 298 633 c 0
 291 637 280 645 267 645 c 0
 239 645 212 593 205 558 c 0
 197 518 191 469 191 415 c 0
 191 397 196 393 205 393 c 0
 210 393 219 394 226 395 c 0
 244 396 265 398 282 398 c 0
 294 398 304 394 304 374 c 0
 304 357 292 355 275 354 c 2
 228 353 l 2
 200 352 190 352 190 320 c 2
 190 68 l 2
 190 53 196 42 203 37 c 0
 213 30 225 31 240 30 c 0
 258 28 276 29 277 15 c 0
 278 3 270 -4 259 -4 c 0
 236 -4 215 0 157 0 c 0
 91 0 77 -4 53 -4 c 0
 36 -4 33 3 33 14 c 0
 33 23 40 27 53 27 c 0
 80 28 100 25 112 39 c 0
 116 44 119 50 119 60 c 2
 120 312 l 2
 120 328 118 339 104 339 c 0
 92 339 74 333 67 333 c 0
 59 333 52 338 52 348 c 0
 52 365 93 371 114 376 c 0
 123 378 123 391 124 398 c 0
 138 524 139 584 213 654 c 0
 236 676 267 690 310 690 c 0
EndSplineSet
Validated: 1
EndChar

StartChar: g
Encoding: 103 103 6
Width: 473
VWidth: 0
Flags: HWO
HStem: -265 32<97.0344 247.421> -37 61<107.051 242.5> -33 64<148.24 332.421> 115 26<163.714 245.284> 331 59<349.833 429.692> 385 25<162.174 241.512>
VStem: -9 57<-198.697 -98.2123> 32 61<39.2935 96.691> 54 68<180.017 344.804> 287 67<193.073 330.273> 355 54<-156.667 -56.8581>
LayerCount: 2
Fore
SplineSet
287 274 m 0x94e0
 287 354 240 385 200 385 c 0
 159 385 122 348 122 271 c 0
 122 190 152 141 204 141 c 0
 262 141 287 197 287 274 c 0x94e0
355 -106 m 0
 355 -82 349 -33 244 -33 c 0xb260
 212 -33 180 -33 146 -37 c 0
 114 -41 48 -83 48 -148 c 0xd260
 48 -216 125 -233 182 -233 c 0
 255 -233 355 -186 355 -106 c 0
210 410 m 0xb4e0
 257 410 272 401 298 388 c 1
 334 389 378 390 405 390 c 0
 429 390 430 372 430 361 c 0
 430 342 429 332 412 332 c 2
 361 332 l 2
 352 332 348 328 349 316 c 0
 350 305 354 290 354 273 c 0
 354 227 331 177 295 143 c 0
 274 124 233 115 191 115 c 0
 175 115 159 116 144 116 c 0
 132 116 93 80 93 66 c 0
 93 46 138 24 147 24 c 0xd960
 187 24 245 31 281 31 c 0
 348 31 409 -2 409 -82 c 0
 409 -162 348 -211 277 -239 c 0
 236 -255 191 -265 154 -265 c 0
 73 -265 -9 -245 -9 -159 c 0xb260
 -9 -94 52 -58 91 -39 c 0
 100 -35 104 -32 104 -28 c 0
 104 -23 97 -17 88 -10 c 0
 58 14 32 48 32 74 c 0xb160
 32 95 38 95 61 102 c 0
 92 112 119 119 119 124 c 0
 119 128 111 137 104 144 c 0
 89 159 74 179 65 201 c 0
 55 226 54 253 54 274 c 0
 54 316 75 359 117 385 c 0
 141 400 171 410 210 410 c 0xb4e0
EndSplineSet
EndChar

StartChar: h
Encoding: 104 104 7
Width: 218
VWidth: 0
Flags: W
HStem: 246 68<78.3303 141.67>
VStem: 76 68<248.33 311.67>
LayerCount: 2
Fore
SplineSet
76 280 m 4
 76 299 91 314 110 314 c 4
 129 314 144 299 144 280 c 4
 144 261 129 246 110 246 c 4
 91 246 76 261 76 280 c 4
EndSplineSet
Validated: 1
EndChar

StartChar: i
Encoding: 105 105 8
Width: 218
VWidth: 0
Flags: W
HStem: 246 68<78.3303 141.67>
VStem: 76 68<248.33 311.67>
LayerCount: 2
Fore
SplineSet
76 280 m 4
 76 299 91 314 110 314 c 4
 129 314 144 299 144 280 c 4
 144 261 129 246 110 246 c 4
 91 246 76 261 76 280 c 4
EndSplineSet
Validated: 1
EndChar

StartChar: j
Encoding: 106 106 9
Width: 218
VWidth: 0
Flags: W
HStem: 246 68<78.3303 141.67>
VStem: 76 68<248.33 311.67>
LayerCount: 2
Fore
SplineSet
76 280 m 4
 76 299 91 314 110 314 c 4
 129 314 144 299 144 280 c 4
 144 261 129 246 110 246 c 4
 91 246 76 261 76 280 c 4
EndSplineSet
Validated: 1
EndChar

StartChar: k
Encoding: 107 107 10
Width: 218
VWidth: 0
Flags: W
HStem: 246 68<78.3303 141.67>
VStem: 76 68<248.33 311.67>
LayerCount: 2
Fore
SplineSet
76 280 m 4
 76 299 91 314 110 314 c 4
 129 314 144 299 144 280 c 4
 144 261 129 246 110 246 c 4
 91 246 76 261 76 280 c 4
EndSplineSet
Validated: 1
EndChar

StartChar: l
Encoding: 108 108 11
Width: 218
VWidth: 0
Flags: W
HStem: 246 68<78.3303 141.67>
VStem: 76 68<248.33 311.67>
LayerCount: 2
Fore
SplineSet
76 280 m 4
 76 299 91 314 110 314 c 4
 129 314 144 299 144 280 c 4
 144 261 129 246 110 246 c 4
 91 246 76 261 76 280 c 4
EndSplineSet
Validated: 1
EndChar

StartChar: m
Encoding: 109 109 12
Width: 218
VWidth: 0
Flags: W
HStem: 246 68<78.3303 141.67>
VStem: 76 68<248.33 311.67>
LayerCount: 2
Fore
SplineSet
76 280 m 4
 76 299 91 314 110 314 c 4
 129 314 144 299 144 280 c 4
 144 261 129 246 110 246 c 4
 91 246 76 261 76 280 c 4
EndSplineSet
Validated: 1
EndChar

StartChar: n
Encoding: 110 110 13
Width: 218
VWidth: 0
Flags: W
HStem: 246 68<78.3303 141.67>
VStem: 76 68<248.33 311.67>
LayerCount: 2
Fore
SplineSet
76 280 m 4
 76 299 91 314 110 314 c 4
 129 314 144 299 144 280 c 4
 144 261 129 246 110 246 c 4
 91 246 76 261 76 280 c 4
EndSplineSet
Validated: 1
EndChar

StartChar: o
Encoding: 111 111 14
Width: 218
VWidth: 0
Flags: W
HStem: 246 68<78.3303 141.67>
VStem: 76 68<248.33 311.67>
LayerCount: 2
Fore
SplineSet
76 280 m 4
 76 299 91 314 110 314 c 4
 129 314 144 299 144 280 c 4
 144 261 129 246 110 246 c 4
 91 246 76 261 76 280 c 4
EndSplineSet
Validated: 1
EndChar

StartChar: p
Encoding: 112 112 15
Width: 218
VWidth: 0
Flags: W
HStem: 246 68<78.3303 141.67>
VStem: 76 68<248.33 311.67>
LayerCount: 2
Fore
SplineSet
76 280 m 4
 76 299 91 314 110 314 c 4
 129 314 144 299 144 280 c 4
 144 261 129 246 110 246 c 4
 91 246 76 261 76 280 c 4
EndSplineSet
Validated: 1
EndChar

StartChar: q
Encoding: 113 113 16
Width: 218
VWidth: 0
Flags: W
HStem: 246 68<78.3303 141.67>
VStem: 76 68<248.33 311.67>
LayerCount: 2
Fore
SplineSet
76 280 m 4
 76 299 91 314 110 314 c 4
 129 314 144 299 144 280 c 4
 144 261 129 246 110 246 c 4
 91 246 76 261 76 280 c 4
EndSplineSet
Validated: 1
EndChar

StartChar: r
Encoding: 114 114 17
Width: 218
VWidth: 0
Flags: W
HStem: 246 68<78.3303 141.67>
VStem: 76 68<248.33 311.67>
LayerCount: 2
Fore
SplineSet
76 280 m 4
 76 299 91 314 110 314 c 4
 129 314 144 299 144 280 c 4
 144 261 129 246 110 246 c 4
 91 246 76 261 76 280 c 4
EndSplineSet
Validated: 1
EndChar

StartChar: s
Encoding: 115 115 18
Width: 218
VWidth: 0
Flags: W
HStem: 246 68<78.3303 141.67>
VStem: 76 68<248.33 311.67>
LayerCount: 2
Fore
SplineSet
76 280 m 4
 76 299 91 314 110 314 c 4
 129 314 144 299 144 280 c 4
 144 261 129 246 110 246 c 4
 91 246 76 261 76 280 c 4
EndSplineSet
Validated: 1
EndChar

StartChar: t
Encoding: 116 116 19
Width: 218
VWidth: 0
Flags: W
HStem: 246 68<78.3303 141.67>
VStem: 76 68<248.33 311.67>
LayerCount: 2
Fore
SplineSet
76 280 m 4
 76 299 91 314 110 314 c 4
 129 314 144 299 144 280 c 4
 144 261 129 246 110 246 c 4
 91 246 76 261 76 280 c 4
EndSplineSet
Validated: 1
EndChar

StartChar: u
Encoding: 117 117 20
Width: 218
VWidth: 0
Flags: W
HStem: 246 68<78.3303 141.67>
VStem: 76 68<248.33 311.67>
LayerCount: 2
Fore
SplineSet
76 280 m 4
 76 299 91 314 110 314 c 4
 129 314 144 299 144 280 c 4
 144 261 129 246 110 246 c 4
 91 246 76 261 76 280 c 4
EndSplineSet
Validated: 1
EndChar

StartChar: v
Encoding: 118 118 21
Width: 218
VWidth: 0
Flags: W
HStem: 246 68<78.3303 141.67>
VStem: 76 68<248.33 311.67>
LayerCount: 2
Fore
SplineSet
76 280 m 4
 76 299 91 314 110 314 c 4
 129 314 144 299 144 280 c 4
 144 261 129 246 110 246 c 4
 91 246 76 261 76 280 c 4
EndSplineSet
Validated: 1
EndChar

StartChar: w
Encoding: 119 119 22
Width: 218
VWidth: 0
Flags: W
HStem: 246 68<78.3303 141.67>
VStem: 76 68<248.33 311.67>
LayerCount: 2
Fore
SplineSet
76 280 m 4
 76 299 91 314 110 314 c 4
 129 314 144 299 144 280 c 4
 144 261 129 246 110 246 c 4
 91 246 76 261 76 280 c 4
EndSplineSet
Validated: 1
EndChar

StartChar: x
Encoding: 120 120 23
Width: 218
VWidth: 0
Flags: W
HStem: 246 68<78.3303 141.67>
VStem: 76 68<248.33 311.67>
LayerCount: 2
Fore
SplineSet
76 280 m 4
 76 299 91 314 110 314 c 4
 129 314 144 299 144 280 c 4
 144 261 129 246 110 246 c 4
 91 246 76 261 76 280 c 4
EndSplineSet
Validated: 1
EndChar

StartChar: y
Encoding: 121 121 24
Width: 218
VWidth: 0
Flags: W
HStem: 246 68<78.3303 141.67>
VStem: 76 68<248.33 311.67>
LayerCount: 2
Fore
SplineSet
76 280 m 4
 76 299 91 314 110 314 c 4
 129 314 144 299 144 280 c 4
 144 261 129 246 110 246 c 4
 91 246 76 261 76 280 c 4
EndSplineSet
Validated: 1
EndChar

StartChar: z
Encoding: 122 122 25
Width: 218
VWidth: 0
Flags: W
HStem: 246 68<78.3303 141.67>
VStem: 76 68<248.33 311.67>
LayerCount: 2
Fore
SplineSet
76 280 m 4
 76 299 91 314 110 314 c 4
 129 314 144 299 144 280 c 4
 144 261 129 246 110 246 c 4
 91 246 76 261 76 280 c 4
EndSplineSet
Validated: 1
EndChar

